<svg xmlns="http://www.w3.org/2000/svg" fill="none" viewBox="0 0 24 24" id="Vegetables-Plate--Streamline-Ultimate.svg" height="24" width="24"><desc>Vegetables Plate Streamline Icon: https://streamlinehq.com</desc><path fill="#ffffff" d="M12 23.5c2.2745 0 4.4979 -0.6745 6.3891 -1.9381 1.8911 -1.2636 3.3651 -3.0597 4.2355 -5.161 0.8704 -2.1014 1.0982 -4.4137 0.6544 -6.64443 -0.4437 -2.23079 -1.539 -4.27989 -3.1473 -5.88819 -1.6083 -1.60831 -3.6574 -2.70358 -5.8882 -3.147306 -2.2307 -0.44373 -4.54301 -0.215991 -6.64436 0.654416 -2.10135 0.87041 -3.8974 2.34439 -5.16104 4.23556C1.17446 7.50211 0.5 9.72552 0.5 12c0 3.05 1.2116 5.9751 3.36827 8.1317C6.02494 22.2884 8.95001 23.5 12 23.5Z" stroke-width="1"></path><path stroke="#191919" stroke-linecap="round" stroke-linejoin="round" d="M12 23.5c2.2745 0 4.4979 -0.6745 6.3891 -1.9381 1.8911 -1.2636 3.3651 -3.0597 4.2355 -5.161 0.8704 -2.1014 1.0982 -4.4137 0.6544 -6.64443 -0.4437 -2.23079 -1.539 -4.27989 -3.1473 -5.88819 -1.6083 -1.60831 -3.6574 -2.70358 -5.8882 -3.147306 -2.2307 -0.44373 -4.54301 -0.215991 -6.64436 0.654416 -2.10135 0.87041 -3.8974 2.34439 -5.16104 4.23556C1.17446 7.50211 0.5 9.72552 0.5 12c0 3.05 1.2116 5.9751 3.36827 8.1317C6.02494 22.2884 8.95001 23.5 12 23.5v0Z" stroke-width="1"></path><path fill="#e3e3e3" d="M12 19.655c1.514 0 2.994 -0.449 4.2529 -1.2901 1.2588 -0.8412 2.24 -2.0367 2.8194 -3.4355 0.5794 -1.3988 0.731 -2.9379 0.4356 -4.4228 -0.2954 -1.48497 -1.0244 -2.84896 -2.095 -3.91953 -1.0706 -1.07057 -2.4346 -1.79964 -3.9195 -2.09501 -1.4849 -0.29537 -3.0241 -0.14377 -4.42284 0.43562 -1.39877 0.57938 -2.59432 1.56055 -3.43546 2.8194C4.79396 9.00594 4.345 10.486 4.345 12c0 2.0302 0.80651 3.9773 2.2421 5.4129C8.02269 18.8485 9.96977 19.655 12 19.655Z" stroke-width="1"></path><path fill="#ffbc44" d="m7.6 10.61 -2.1 2.1c-0.21048 0.2103 -0.37188 0.4646 -0.47265 0.7445 -0.10076 0.28 -0.13839 0.5788 -0.1102 0.875 0.02818 0.2962 0.1215 0.5826 0.27326 0.8385s0.35822 0.4752 0.60459 0.642l7.236 4.9c0.3883 0.2631 0.856 0.3826 1.3229 0.3381 0.4668 -0.0446 0.9036 -0.2504 1.2351 -0.5821 0.3407 -0.3409 0.5482 -0.7924 0.5849 -1.273 0.0366 -0.4805 -0.0999 -0.9583 -0.3849 -1.347l-5.135 -7c-0.1719 -0.2347 -0.3925 -0.4295 -0.6467 -0.5711 -0.25418 -0.1415 -0.53598 -0.2263 -0.82606 -0.2488 -0.29007 -0.0224 -0.58157 0.0182 -0.8545 0.119s-0.52084 0.2594 -0.72674 0.4649Z" stroke-width="1"></path><path fill="#ffdda1" d="m8.68299 11.845 6.53401 8.908c0.2397 -0.1434 0.4466 -0.3355 0.6073 -0.564 0.1607 -0.2285 0.2716 -0.4881 0.3255 -0.7622 0.054 -0.2741 0.0497 -0.5564 -0.0125 -0.8287 -0.0621 -0.2723 -0.1808 -0.5286 -0.3483 -0.7521l-5.135 -7c-0.1719 -0.2347 -0.3925 -0.4295 -0.6467 -0.5711 -0.25419 -0.1415 -0.53599 -0.2263 -0.82607 -0.2488 -0.29008 -0.0224 -0.58157 0.0182 -0.8545 0.119s-0.52084 0.2594 -0.72674 0.4649l-0.269 0.27c0.54187 0.1696 1.0155 0.5077 1.352 0.965Z" stroke-width="1"></path><path stroke="#191919" stroke-linecap="round" stroke-linejoin="round" d="m7.6 10.61 -2.1 2.1c-0.21048 0.2103 -0.37188 0.4646 -0.47265 0.7445 -0.10076 0.28 -0.13839 0.5788 -0.1102 0.875 0.02818 0.2962 0.1215 0.5826 0.27326 0.8385s0.35822 0.4752 0.60459 0.642l7.236 4.9c0.3883 0.2631 0.856 0.3826 1.3229 0.3381 0.4668 -0.0446 0.9036 -0.2504 1.2351 -0.5821 0.3407 -0.3409 0.5482 -0.7924 0.5849 -1.273 0.0366 -0.4805 -0.0999 -0.9583 -0.3849 -1.347l-5.135 -7c-0.1719 -0.2347 -0.3925 -0.4295 -0.6467 -0.5711 -0.25418 -0.1415 -0.53598 -0.2263 -0.82606 -0.2488 -0.29007 -0.0224 -0.58157 0.0182 -0.8545 0.119s-0.52084 0.2594 -0.72674 0.4649v0Z" stroke-width="1"></path><path stroke="#191919" stroke-linecap="round" stroke-linejoin="round" d="m6.633 16.37 1.94 -1.94" stroke-width="1"></path><path stroke="#191919" stroke-linecap="round" stroke-linejoin="round" d="m10.975 15.458 1.769 -1.768" stroke-width="1"></path><path stroke="#191919" stroke-linecap="round" stroke-linejoin="round" d="m11.543 19.7 1.491 -1.491" stroke-width="1"></path><path stroke="#191919" stroke-linecap="round" stroke-linejoin="round" d="m6.514 11.69 -4.1 0.586" stroke-width="1"></path><path stroke="#191919" stroke-linecap="round" stroke-linejoin="round" d="M6.514 11.686 3.769 8.94" stroke-width="1"></path><path stroke="#191919" stroke-linecap="round" stroke-linejoin="round" d="m6.51401 11.692 0.586 -4.10197" stroke-width="1"></path><path fill="#ffef5e" stroke="#191919" stroke-linecap="round" stroke-linejoin="round" d="m13.983 8.19998 0.523 -0.983c0.144 0.08709 0.305 0.14246 0.4721 0.16243 0.1672 0.01997 0.3366 0.00408 0.4971 -0.04662 0.1605 -0.0507 0.3084 -0.13504 0.4337 -0.2474 0.1253 -0.11235 0.2253 -0.25014 0.2932 -0.40416 0.0678 -0.15403 0.1021 -0.32076 0.1004 -0.48907 -0.0016 -0.16832 -0.0391 -0.33434 -0.11 -0.48701 -0.0709 -0.15266 -0.1735 -0.28846 -0.301 -0.39833 -0.1276 -0.10988 -0.277 -0.1913 -0.4385 -0.23884 -0.0133 0.00095 -0.0266 -0.0011 -0.039 -0.006 0.0329 -0.45664 -0.0933 -0.91059 -0.3572 -1.28473 -0.2638 -0.37414 -0.6491 -0.64539 -1.0903 -0.76768 -0.4412 -0.12229 -0.9111 -0.08806 -1.3299 0.09686 -0.4188 0.18492 -0.7607 0.50913 -0.9676 0.91755l-0.037 -0.014c-0.1652 -0.04853 -0.339 -0.06056 -0.5093 -0.03526 -0.1703 0.02529 -0.3331 0.08731 -0.4771 0.18175 -0.144 0.09445 -0.2657 0.21906 -0.3568 0.36522 -0.091 0.14615 -0.1492 0.31035 -0.1705 0.48122 -0.0213 0.17087 -0.0052 0.34433 0.0472 0.50836s0.1398 0.31471 0.2562 0.4416c0.1164 0.12689 0.259 0.22697 0.4179 0.29329 0.1589 0.06633 0.3303 0.09732 0.5024 0.09082l-0.057 1.112 2.698 0.751Z" stroke-width="1"></path><path fill="#ffef5e" stroke="#191919" stroke-linecap="round" stroke-linejoin="round" d="m19.72 13.1 -0.058 -1.112c0.1155 0.0048 0.2311 -0.0077 0.343 -0.037 0.1532 -0.0394 0.297 -0.1089 0.423 -0.2045 0.1261 -0.0956 0.2318 -0.2153 0.311 -0.3523 0.0792 -0.1369 0.1303 -0.2882 0.1503 -0.4451 0.02 -0.157 0.0085 -0.3163 -0.0338 -0.4687 -0.0422 -0.1524 -0.1145 -0.2949 -0.2125 -0.4191 -0.0979 -0.12415 -0.2197 -0.22755 -0.3581 -0.30412 -0.1384 -0.07658 -0.2907 -0.12478 -0.448 -0.14181 -0.1572 -0.01703 -0.3163 -0.00253 -0.4679 0.04264 -0.013 0 -0.024 0.011 -0.037 0.015 -0.2069 -0.40854 -0.5489 -0.73284 -0.9678 -0.91778 -0.4189 -0.18493 -0.889 -0.21909 -1.3303 -0.09666 -0.4412 0.12242 -0.8265 0.39388 -1.0903 0.76822 -0.2638 0.37435 -0.3898 0.82851 -0.3566 1.28521l-0.039 0.006c-0.1668 0.0435 -0.3223 0.1227 -0.4555 0.2321 -0.1332 0.1095 -0.241 0.2466 -0.316 0.4018 -0.075 0.1553 -0.1154 0.3249 -0.1184 0.4973 -0.0029 0.1724 0.0316 0.3434 0.1013 0.5011 0.0696 0.1577 0.1727 0.2984 0.3021 0.4124 0.1294 0.1139 0.282 0.1984 0.4473 0.2475 0.1652 0.0492 0.3392 0.0618 0.5098 0.0371 0.1707 -0.0247 0.3339 -0.0863 0.4784 -0.1803l0.523 0.982 2.7 -0.749Z" stroke-width="1"></path></svg>