<svg xmlns="http://www.w3.org/2000/svg" fill="none" viewBox="0 0 24 24" id="Car-Retro-Luggage--Streamline-Ultimate.svg" height="24" width="24"><desc>Car Retro Luggage Streamline Icon: https://streamlinehq.com</desc><path fill="#ff808c" d="m1.5 20 0.777 -4.673A8.761 8.761 0 0 1 10.916 8a9.233 9.233 0 0 1 8.484 5.6L20 15c2.787 0 3.416 2.229 3.492 4.483A0.5 0.5 0 0 1 23 20H1.5Z" stroke-width="1"></path><path fill="#ffbfc5" d="M12.034 11.091a11.918 11.918 0 0 1 7.4 2.572L19.4 13.6A9.233 9.233 0 0 0 10.916 8a8.76 8.76 0 0 0 -8.635 7.327l-0.325 1.954a11.31 11.31 0 0 1 10.078 -6.19Z" stroke-width="1"></path><path stroke="#191919" stroke-linecap="round" stroke-linejoin="round" d="m1.5 20 0.777 -4.673A8.761 8.761 0 0 1 10.916 8a9.233 9.233 0 0 1 8.484 5.6L20 15c2.787 0 3.416 2.229 3.492 4.483A0.5 0.5 0 0 1 23 20H1.5Z" stroke-width="1"></path><path fill="#808080" stroke="#191919" stroke-linecap="round" stroke-linejoin="round" d="M19.504 22a2 2 0 1 0 0 -4 2 2 0 0 0 0 4Z" stroke-width="1"></path><path stroke="#191919" stroke-linecap="round" stroke-linejoin="round" d="M3.504 20h-3" stroke-width="1"></path><path fill="#808080" stroke="#191919" stroke-linecap="round" stroke-linejoin="round" d="M5.504 22a2 2 0 1 0 0 -4 2 2 0 0 0 0 4Z" stroke-width="1"></path><path fill="#66e1ff" stroke="#191919" stroke-linecap="round" stroke-linejoin="round" d="M10.5 10c-2.42 0 -4.541 2 -5.5 4h5.5v-4Z" stroke-width="1"></path><path fill="#66e1ff" stroke="#191919" stroke-linecap="round" stroke-linejoin="round" d="M12.5 10a7.775 7.775 0 0 1 5 4h-5v-4Z" stroke-width="1"></path><path stroke="#191919" stroke-linecap="round" stroke-linejoin="round" d="M10.504 10v8" stroke-width="1"></path><path fill="#c77f67" d="m6.504 8 5 0a1 1 0 0 0 1 -1V5a1 1 0 0 0 -1 -1l-5 0a1 1 0 0 0 -1 1v2a1 1 0 0 0 1 1Z" stroke-width="1"></path><path fill="#e3bfb3" d="M12.5 6V5a1 1 0 0 0 -1 -1h-5a1 1 0 0 0 -1 1v1h7Z" stroke-width="1"></path><path stroke="#191919" stroke-linecap="round" stroke-linejoin="round" d="m6.504 8 5 0a1 1 0 0 0 1 -1V5a1 1 0 0 0 -1 -1l-5 0a1 1 0 0 0 -1 1v2a1 1 0 0 0 1 1Z" stroke-width="1"></path><path stroke="#191919" stroke-linecap="round" stroke-linejoin="round" d="M10.504 4v4" stroke-width="1"></path><path stroke="#191919" stroke-linecap="round" stroke-linejoin="round" d="M7.504 4v4" stroke-width="1"></path><path fill="#ffbc44" d="M13.504 8h2a1 1 0 0 0 1 -1V3a1 1 0 0 0 -1 -1h-2a1 1 0 0 0 -1 1v4a1 1 0 0 0 1 1Z" stroke-width="1"></path><path fill="#ffdda1" d="M15.5 2h-2a1 1 0 0 0 -1 1v2a1 1 0 0 1 1 -1h2a1 1 0 0 1 1 1V3a1 1 0 0 0 -1 -1Z" stroke-width="1"></path><path stroke="#191919" stroke-linecap="round" stroke-linejoin="round" d="M13.504 8h2a1 1 0 0 0 1 -1V3a1 1 0 0 0 -1 -1h-2a1 1 0 0 0 -1 1v4a1 1 0 0 0 1 1Z" stroke-width="1"></path><path stroke="#191919" stroke-linecap="round" stroke-linejoin="round" d="M14.504 4V2" stroke-width="1"></path></svg>