<svg xmlns="http://www.w3.org/2000/svg" fill="none" viewBox="0 0 24 24" id="Room-Service-Cart-Food--Streamline-Ultimate.svg" height="24" width="24"><desc>Room Service Cart Food Streamline Icon: https://streamlinehq.com</desc><path fill="#e3e3e3" d="M8 9.5c0 -0.78793 0.15519 -1.56815 0.45672 -2.2961 0.30153 -0.72795 0.74349 -1.38939 1.30064 -1.94654 0.55714 -0.55715 1.21854 -0.99911 1.94654 -1.30064C12.4319 3.65519 13.2121 3.5 14 3.5s1.5681 0.15519 2.2961 0.45672 1.3894 0.74349 1.9465 1.30064c0.5572 0.55715 0.9991 1.21859 1.3007 1.94654C19.8448 7.93185 20 8.71207 20 9.5H8Z" stroke-width="1"></path><path fill="#ffffff" d="M14 6.5c2.1932 -0.00313 4.3114 0.79771 5.954 2.251 -0.1817 -1.45085 -0.8869 -2.78542 -1.9832 -3.75297 -1.0963 -0.96755 -2.5081 -1.50148 -3.9703 -1.50148 -1.4622 0 -2.874 0.53393 -3.9703 1.50148C8.93391 5.96558 8.22868 7.30015 8.047 8.751 9.68905 7.29754 11.8071 6.49665 14 6.5Z" stroke-width="1"></path><path fill="#ffdda1" d="M4.5 12.5h17c0.5304 0 1.0391 0.2107 1.4142 0.5858s0.5858 0.8838 0.5858 1.4142v6c0 0.2652 -0.1054 0.5196 -0.2929 0.7071s-0.4419 0.2929 -0.7071 0.2929h-17c-0.26522 0 -0.51957 -0.1054 -0.70711 -0.2929C4.60536 21.0196 4.5 20.7652 4.5 20.5v-8Z" stroke-width="1"></path><path fill="#808080" d="M10.5 21.5c0 0.5304 -0.2107 1.0391 -0.58579 1.4142 -0.37507 0.3751 -0.88378 0.5858 -1.41421 0.5858s-1.03914 -0.2107 -1.41421 -0.5858C6.71071 22.5391 6.5 22.0304 6.5 21.5" stroke-width="1"></path><path stroke="#191919" stroke-linecap="round" stroke-linejoin="round" d="M10.5 21.5c0 0.5304 -0.2107 1.0391 -0.58579 1.4142 -0.37507 0.3751 -0.88378 0.5858 -1.41421 0.5858s-1.03914 -0.2107 -1.41421 -0.5858C6.71071 22.5391 6.5 22.0304 6.5 21.5" stroke-width="1"></path><path fill="#808080" d="M21.5 21.5c0 0.5304 -0.2107 1.0391 -0.5858 1.4142S20.0304 23.5 19.5 23.5c-0.5304 0 -1.0391 -0.2107 -1.4142 -0.5858S17.5 22.0304 17.5 21.5" stroke-width="1"></path><path stroke="#191919" stroke-linecap="round" stroke-linejoin="round" d="M21.5 21.5c0 0.5304 -0.2107 1.0391 -0.5858 1.4142S20.0304 23.5 19.5 23.5c-0.5304 0 -1.0391 -0.2107 -1.4142 -0.5858S17.5 22.0304 17.5 21.5" stroke-width="1"></path><path stroke="#191919" stroke-linecap="round" stroke-linejoin="round" d="M4.5 12.5h17c0.5304 0 1.0391 0.2107 1.4142 0.5858s0.5858 0.8838 0.5858 1.4142v6c0 0.2652 -0.1054 0.5196 -0.2929 0.7071s-0.4419 0.2929 -0.7071 0.2929h-17c-0.26522 0 -0.51957 -0.1054 -0.70711 -0.2929C4.60536 21.0196 4.5 20.7652 4.5 20.5v-8Z" stroke-width="1"></path><path stroke="#191919" stroke-linecap="round" stroke-linejoin="round" d="M0.5 8c0.52866 0.00572 1.03405 0.21827 1.40789 0.59211 0.37384 0.37384 0.58639 0.87923 0.59211 1.40789v0.5c0 0.5304 0.21071 1.0391 0.58579 1.4142 0.37507 0.3751 0.88378 0.5858 1.41421 0.5858" stroke-width="1"></path><path stroke="#191919" stroke-linecap="round" stroke-linejoin="round" d="M8.5 21.5v-5" stroke-width="1"></path><path stroke="#191919" stroke-linecap="round" stroke-linejoin="round" d="M13.5 21.5v-5" stroke-width="1"></path><path stroke="#191919" stroke-linecap="round" stroke-linejoin="round" d="M19.5 21.5v-5" stroke-width="1"></path><path stroke="#191919" stroke-linecap="round" stroke-linejoin="round" d="M6.002 9.5h16" stroke-width="1"></path><path fill="#808080" stroke="#191919" stroke-linecap="round" stroke-linejoin="round" d="M14.002 2.5c0.5523 0 1 -0.44772 1 -1 0 -0.552285 -0.4477 -1 -1 -1s-1 0.447715 -1 1c0 0.55228 0.4477 1 1 1Z" stroke-width="1"></path><path stroke="#191919" stroke-linecap="round" stroke-linejoin="round" d="M8 9.5c0 -0.78793 0.15519 -1.56815 0.45672 -2.2961 0.30153 -0.72795 0.74349 -1.38939 1.30064 -1.94654 0.55714 -0.55715 1.21854 -0.99911 1.94654 -1.30064C12.4319 3.65519 13.2121 3.5 14 3.5s1.5681 0.15519 2.2961 0.45672 1.3894 0.74349 1.9465 1.30064c0.5572 0.55715 0.9991 1.21859 1.3007 1.94654C19.8448 7.93185 20 8.71207 20 9.5" stroke-width="1"></path></svg>