<svg xmlns="http://www.w3.org/2000/svg" fill="none" viewBox="0 0 24 24" id="Table-Restaurant-Beach-1--Streamline-Ultimate.svg" height="24" width="24"><desc>Table Restaurant Beach 1 Streamline Icon: https://streamlinehq.com</desc><path fill="#c2f3ff" d="M12 23.875c5.4538 0 9.875 -4.4212 9.875 -9.875 0 -5.45381 -4.4212 -9.875 -9.875 -9.875 -5.45381 0 -9.875 4.42119 -9.875 9.875 0 5.4538 4.42119 9.875 9.875 9.875Z" stroke-width="1"></path><path fill="#ff808c" d="M22.182 5.534C18.6838 4.07549 15.2828 2.39403 12 0.5 8.71715 2.39403 5.31617 4.07549 1.818 5.534c-0.10875 0.04229 -0.19928 0.12128 -0.25591 0.22329 -0.05664 0.10202 -0.07582 0.22062 -0.05422 0.33528 0.02161 0.11467 0.08263 0.21816 0.17251 0.29257 0.08987 0.07441 0.20294 0.11504 0.31962 0.11486h20c0.1167 0.00018 0.2297 -0.04045 0.3196 -0.11486 0.0899 -0.07441 0.1509 -0.1779 0.1725 -0.29257 0.0216 -0.11466 0.0025 -0.23326 -0.0542 -0.33528 -0.0566 -0.10201 -0.1472 -0.181 -0.2559 -0.22329Z" stroke-width="1"></path><path fill="#ffbfc5" d="M5.042 4.136C7.13796 5.41389 9.5452 6.09025 12 6.091c2.4549 -0.00028 4.8622 -0.67668 6.958 -1.955C15.315 2.426 12 0.5 12 0.5S8.685 2.426 5.042 4.136Z" stroke-width="1"></path><path stroke="#191919" stroke-linecap="round" stroke-linejoin="round" d="M0.5 11 2 18.5h4.5c0.26522 0 0.51957 0.1054 0.70711 0.2929 0.18753 0.1875 0.29289 0.4419 0.29289 0.7071v4" stroke-width="1"></path><path stroke="#191919" stroke-linecap="round" stroke-linejoin="round" d="m2 18.5 -0.5 5" stroke-width="1"></path><path stroke="#191919" stroke-linecap="round" stroke-linejoin="round" d="M23.5 11 22 18.5h-4.5c-0.2652 0 -0.5196 0.1054 -0.7071 0.2929s-0.2929 0.4419 -0.2929 0.7071v4" stroke-width="1"></path><path stroke="#191919" stroke-linecap="round" stroke-linejoin="round" d="m22 18.5 0.5 5" stroke-width="1"></path><path stroke="#191919" stroke-linecap="round" stroke-linejoin="round" d="M12 6.5v17" stroke-width="1"></path><path stroke="#191919" stroke-linecap="round" stroke-linejoin="round" d="M5.5 14.5h13" stroke-width="1"></path><path stroke="#191919" stroke-linecap="round" stroke-linejoin="round" d="M22.182 5.534C18.6838 4.07549 15.2828 2.39403 12 0.5 8.71715 2.39403 5.31617 4.07549 1.818 5.534c-0.10875 0.04229 -0.19928 0.12128 -0.25591 0.22329 -0.05664 0.10202 -0.07582 0.22062 -0.05422 0.33528 0.02161 0.11467 0.08263 0.21816 0.17251 0.29257 0.08987 0.07441 0.20294 0.11504 0.31962 0.11486h20c0.1167 0.00018 0.2297 -0.04045 0.3196 -0.11486 0.0899 -0.07441 0.1509 -0.1779 0.1725 -0.29257 0.0216 -0.11466 0.0025 -0.23326 -0.0542 -0.33528 -0.0566 -0.10201 -0.1472 -0.181 -0.2559 -0.22329v0Z" stroke-width="1"></path></svg>