<svg xmlns="http://www.w3.org/2000/svg" fill="none" viewBox="0 0 24 24" id="Beer-Mug--Streamline-Ultimate.svg" height="24" width="24"><desc>Beer Mug Streamline Icon: https://streamlinehq.com</desc><path fill="#fff9bf" d="M5.5 9.25V20.5h12v-11" stroke-width="1"></path><path fill="#ffef5e" d="M5.5 9.25v3.25h12V9.322" stroke-width="1"></path><path stroke="#191919" stroke-linecap="round" stroke-linejoin="round" d="M17.5 18.5h3.144c0.5106 -0.0211 0.9923 -0.2431 1.3399 -0.6178 0.3477 -0.3746 0.5332 -0.8714 0.5161 -1.3822v-3c-0.0013 -0.53 -0.2125 -1.038 -0.5872 -1.4128 -0.3748 -0.3747 -0.8828 -0.5859 -1.4128 -0.5872h-3" stroke-width="1"></path><path fill="#fff9bf" stroke="#191919" stroke-linecap="round" stroke-linejoin="round" d="M19 22c0 0.3978 -0.158 0.7794 -0.4393 1.0607S17.8978 23.5 17.5 23.5h-12c-0.39782 0 -0.77936 -0.158 -1.06066 -0.4393C4.15804 22.7794 4 22.3978 4 22c0.00158 -0.3973 0.16012 -0.778 0.44109 -1.0589 0.28096 -0.281 0.66157 -0.4395 1.05891 -0.4411h12c0.3978 0 0.7794 0.158 1.0607 0.4393S19 21.6022 19 22Z" stroke-width="1"></path><path stroke="#191919" stroke-linecap="round" stroke-linejoin="round" d="M5.5 15.5v5h12v-11" stroke-width="1"></path><path stroke="#191919" stroke-linecap="round" stroke-linejoin="round" d="M14.5 12v6.5" stroke-width="1"></path><path stroke="#191919" stroke-linecap="round" stroke-linejoin="round" d="M11.5 15v3.5" stroke-width="1"></path><path stroke="#191919" stroke-linecap="round" stroke-linejoin="round" d="M8.5 16v2.5" stroke-width="1"></path><path fill="#e3e3e3" d="M17.505 3.50007c-0.4748 -0.91156 -1.1922 -1.67419 -2.0731 -2.2037C14.551 0.766862 13.541 0.491073 12.5132 0.499453c-1.0277 0.00838 -2.0332 0.300603 -2.90533 0.844407 -0.87213 0.5438 -1.57703 1.31803 -2.03687 2.23721 -0.52799 -0.32062 -1.12307 -0.51459 -1.73858 -0.56672 -0.61551 -0.05213 -1.23473 0.039 -1.80913 0.26626 -0.57439 0.22725 -1.08835 0.58444 -1.50158 1.04358s-0.71451 1.00775 -0.88023 1.60282c-0.16571 0.59508 -0.19135 1.22044 -0.07491 1.82708 0.11644 0.60664 0.3718 1.17807 0.74606 1.6695 0.37426 0.49143 0.85725 0.88951 1.41111 1.16301 0.55387 0.2735 1.16355 0.415 1.78126 0.4135 0 0.7956 0.31607 1.5587 0.87868 2.1213 0.56261 0.5626 1.32567 0.8787 2.12132 0.8787s1.5587 -0.3161 2.1213 -0.8787c0.5626 -0.5626 0.8787 -1.3257 0.8787 -2.1213v-0.5c0 -0.2652 0.1054 -0.5196 0.2929 -0.70714 0.1875 -0.18754 0.4419 -0.29289 0.7071 -0.29289h5c0.7956 0 1.5587 -0.31607 2.1213 -0.87868 0.5626 -0.56261 0.8787 -1.32567 0.8787 -2.12132s-0.3161 -1.55871 -0.8787 -2.12132c-0.5626 -0.56261 -1.3257 -0.87868 -2.1213 -0.87868Z" stroke-width="1"></path><path fill="#ffffff" d="M2.04 9.00007c0.26299 -0.4636 0.61674 -0.86942 1.04009 -1.19324 0.42336 -0.32382 0.90764 -0.55897 1.42392 -0.69143 0.51627 -0.13245 1.05395 -0.15948 1.58091 -0.07947 0.52696 0.08001 1.03238 0.26541 1.48608 0.54514 0.45984 -0.91918 1.16474 -1.69341 2.03687 -2.23721 0.87213 -0.5438 1.87763 -0.83603 2.90533 -0.84441 1.0278 -0.00838 2.0378 0.26741 2.9187 0.79692 0.8809 0.52951 1.5983 1.29214 2.0731 2.2037 0.4199 0.0011 0.8348 0.09073 1.2176 0.26304 0.3829 0.17231 0.7251 0.42342 1.0044 0.73696 0.3907 -0.42895 0.6481 -0.96238 0.7407 -1.53515 0.0926 -0.57277 0.0164 -1.16011 -0.2192 -1.69032 -0.2357 -0.53021 -0.6206 -0.98035 -1.1077 -1.29547 -0.4872 -0.31512 -1.0556 -0.48158 -1.6358 -0.47906 -0.4748 -0.91156 -1.1922 -1.67419 -2.0731 -2.2037C14.551 0.766862 13.541 0.491073 12.5132 0.499453c-1.0277 0.00838 -2.0332 0.300603 -2.90533 0.844407 -0.87213 0.5438 -1.57703 1.31803 -2.03687 2.23721 -0.70647 -0.42917 -1.52855 -0.62892 -2.35318 -0.5718 -0.82464 0.05713 -1.61132 0.36833 -2.25187 0.89081 -0.64055 0.52248 -1.10349 1.23057 -1.32518 2.0269 -0.22168 0.79633 -0.19121 1.64178 0.08723 2.42009 0.08365 0.22682 0.1881 0.44541 0.312 0.653Z" stroke-width="1"></path><path stroke="#191919" stroke-linecap="round" stroke-linejoin="round" d="M17.505 3.50007c-0.4748 -0.91156 -1.1922 -1.67419 -2.0731 -2.2037C14.551 0.766862 13.541 0.491073 12.5132 0.499453c-1.0277 0.00838 -2.0332 0.300603 -2.90533 0.844407 -0.87213 0.5438 -1.57703 1.31803 -2.03687 2.23721 -0.52799 -0.32062 -1.12307 -0.51459 -1.73858 -0.56672 -0.61551 -0.05213 -1.23473 0.039 -1.80913 0.26626 -0.57439 0.22725 -1.08835 0.58444 -1.50158 1.04358s-0.71451 1.00775 -0.88023 1.60282c-0.16571 0.59508 -0.19135 1.22044 -0.07491 1.82708 0.11644 0.60664 0.3718 1.17807 0.74606 1.6695 0.37426 0.49143 0.85725 0.88951 1.41111 1.16301 0.55387 0.2735 1.16355 0.415 1.78126 0.4135v0c0 0.7956 0.31607 1.5587 0.87868 2.1213 0.56261 0.5626 1.32567 0.8787 2.12132 0.8787s1.5587 -0.3161 2.1213 -0.8787c0.5626 -0.5626 0.8787 -1.3257 0.8787 -2.1213v-0.5c0 -0.2652 0.1054 -0.5196 0.2929 -0.70714 0.1875 -0.18754 0.4419 -0.29289 0.7071 -0.29289h5c0.7956 0 1.5587 -0.31607 2.1213 -0.87868 0.5626 -0.56261 0.8787 -1.32567 0.8787 -2.12132s-0.3161 -1.55871 -0.8787 -2.12132c-0.5626 -0.56261 -1.3257 -0.87868 -2.1213 -0.87868v0Z" stroke-width="1"></path></svg>