<svg xmlns="http://www.w3.org/2000/svg" fill="none" viewBox="-0.5 -0.5 24 24" id="Vegetables-Salad--Streamline-Ultimate.svg" height="24" width="24"><desc>Vegetables Salad Streamline Icon: https://streamlinehq.com</desc><path fill="#78eb7b" d="M15.186715999999999 6.065376C15.185519999999999 5.935747999999999 15.169788 5.806579999999999 15.139703999999998 5.680355999999999Z" stroke-width="1"></path><path fill="#78eb7b" d="M21.572343999999998 8.713595999999999C21.734907999999997 8.994655999999999 21.835648 9.307179999999999 21.867756 9.630192C21.899864 9.953295999999998 21.862696 10.279435999999999 21.758736 10.586991999999999C21.654684 10.894548 21.486232 11.176343999999999 21.264604 11.41352C21.043067999999998 11.650879999999999 20.773415999999997 11.838099999999999 20.473679999999998 11.962852H0.9221159999999999C1.019268 11.774712 1.1461359999999998 11.6035 1.297752 11.455748C1.151104 11.250312 1.039968 11.021783999999998 0.9690359999999998 10.779548C0.833336 10.357175999999999 0.8377519999999999 9.902328 0.9816399999999998 9.482624C1.1254359999999999 9.063012 1.4010679999999998 8.700992 1.767228 8.45066C1.6513079999999998 8.140804 1.5982239999999999 7.810891999999999 1.6111959999999999 7.480243999999999C1.624168 7.149596 1.7028279999999998 6.8248359999999995 1.84276 6.524915999999999C1.9825999999999997 6.2250879999999995 2.1808599999999996 5.95608 2.425856 5.733623999999999C2.670944 5.511259999999999 2.9577999999999998 5.339955999999999 3.2697719999999997 5.229648C3.59352 5.155956 3.928584 5.147031999999999 4.255827999999999 5.203428C4.582979999999999 5.259824 4.89578 5.3804359999999996 5.176104 5.558363999999999C5.4993 5.762236 5.76702 6.042927999999999 5.955527999999999 6.375324C5.998399999999999 5.9501 6.150659999999999 5.543183999999999 6.397588 5.194319999999999C6.644424 4.8454559999999995 6.9774639999999994 4.566419999999999 7.36414 4.384443999999999C7.277659999999999 3.9839679999999995 7.271955999999999 3.5702439999999998 7.347487999999999 3.16756C7.422928 2.7648759999999997 7.57804 2.3812359999999995 7.803716 2.039272C8.029392 1.6973079999999998 8.321032 1.4038279999999999 8.661615999999999 1.1760359999999999C9.002108 0.9482439999999999 9.384735999999998 0.79074 9.786959999999999 0.712724C10.195255999999999 0.6802479999999999 10.606036 0.7299279999999999 10.99492 0.858636S11.742971999999998 1.192688 12.051263999999998 1.4624319999999997C12.359556 1.732084 12.610715999999998 2.0608 12.790116 2.429076C12.969424 2.797444 13.0732 3.19792 13.095279999999999 3.6069519999999997C13.607995999999998 3.7017119999999997 14.079127999999999 3.951584 14.445287999999998 4.322711999999999C14.811263999999998 4.69384 15.054696 5.168375999999999 15.142555999999997 5.682288C15.12756 5.36498 15.183403999999998 5.048316 15.30604 4.755204C15.428583999999997 4.462184 15.614792 4.199984 15.851232 3.9878319999999996C16.087671999999998 3.77568 16.368363999999996 3.61882 16.673068 3.5285679999999995C16.977588 3.4383159999999995 17.298484 3.416972 17.612295999999997 3.4661C17.742292 3.1599239999999997 17.933467999999998 2.883556 18.174048 2.653924C18.414627999999997 2.424292 18.699644 2.246272 19.011523999999998 2.1307199999999997C19.321288 2.014708 19.651107999999997 1.961624 19.981664 1.9745039999999998C20.312127999999998 1.987384 20.636888 2.0660439999999998 20.936624 2.2058839999999997C21.221548 2.3776479999999998 21.468843999999997 2.60498 21.664067999999997 2.8743559999999997C21.859292 3.143732 21.998212 3.449632 22.072732 3.77384C22.14716 4.0980479999999995 22.155624 4.43394 22.097572 4.7614600000000005C22.03952 5.089072 21.916147999999996 5.401503999999999 21.734816 5.680448C21.927924 5.8879079999999995 22.07724 6.132076 22.174024 6.398415999999999C22.270715999999997 6.664756 22.312943999999998 6.947839999999999 22.298132 7.2308319999999995C22.283136 7.513915999999998 22.211468 7.79102 22.087267999999998 8.045676C21.96316 8.300424 21.788911999999996 8.527572 21.575196 8.713595999999999H21.572343999999998Z" stroke-width="1"></path><path fill="#ffdda1" d="M0.699568 13.842871999999998C0.699568 18.510031999999995 5.39488 22.294544 11.498895999999998 22.294544S22.298316 18.510031999999995 22.298316 13.842871999999998H0.699568Z" stroke-width="1"></path><path fill="#ffbc44" d="M11.498895999999998 18.538184C7.16036 18.538184 3.5440239999999994 16.621548 1.808628 13.842871999999998H0.699568C0.699568 18.510031999999995 5.39488 22.294544 11.498895999999998 22.294544S22.298316 18.510031999999995 22.298316 13.842871999999998H21.189256C19.453859999999995 16.624399999999998 15.837432 18.538184 11.498895999999998 18.538184Z" stroke-width="1"></path><path stroke="#191919" stroke-linecap="round" stroke-linejoin="round" d="M0.699568 13.842871999999998C0.699568 18.510031999999995 5.39488 22.294544 11.498895999999998 22.294544S22.298316 18.510031999999995 22.298316 13.842871999999998H0.699568Z" stroke-width="1"></path><path stroke="#191919" stroke-linecap="round" stroke-linejoin="round" d="M9.642336 10.520384C9.506359999999999 10.250547999999998 9.3127 10.013647999999998 9.075156 9.826796C8.837611999999998 9.639852 8.561888 9.507371999999998 8.267579999999999 9.438555999999998C8.290579999999999 9.1563 8.256632 8.872296 8.16776 8.60338C8.07898 8.334464 7.936932 8.086156 7.750356 7.873176C7.563687999999999 7.660195999999999 7.3361719999999995 7.486776 7.081239999999999 7.363404C6.826308 7.240031999999999 6.549296 7.169007999999999 6.266395999999999 7.154748C6.200432 6.829528 6.069976 6.520868 5.882663999999999 6.246983999999999C5.695352 5.9731 5.455048 5.7395119999999995 5.176012 5.560111999999999C4.896884 5.3806199999999995 4.584727999999999 5.258903999999999 4.25776 5.202139999999999C3.9308840000000003 5.145376 3.5959119999999998 5.15476 3.2726239999999995 5.229648C2.959732 5.339219999999999 2.6719559999999998 5.510339999999999 2.426224 5.732887999999999C2.1804 5.955344 1.9816799999999997 6.224811999999999 1.8416559999999997 6.525376C1.7016319999999998 6.825848 1.6231559999999998 7.151344 1.6109199999999997 7.482635999999999C1.598592 7.814019999999998 1.65278 8.144392 1.7700799999999999 8.454432C1.4030919999999998 8.70412 1.126908 9.066047999999999 0.9828359999999999 9.485844C0.8387639999999998 9.905731999999999 0.8346239999999999 10.360948 0.9709679999999998 10.78332C1.0412559999999997 11.023624 1.151012 11.250587999999999 1.295912 11.454828C1.1451239999999998 11.602671999999998 1.020004 11.774712 0.9258879999999999 11.963771999999999" stroke-width="1"></path><path stroke="#191919" stroke-linecap="round" stroke-linejoin="round" d="M15.183864 6.069147999999999C15.17126 5.48136 14.9569 4.915744 14.576571999999999 4.467428C14.196243999999998 4.019019999999999 13.673224 3.715235999999999 13.095372 3.6068599999999997C13.073107999999998 3.197736 12.969147999999999 2.79726 12.789563999999999 2.428892C12.610071999999999 2.0606159999999996 12.358451999999998 1.731992 12.049883999999999 1.4625239999999997C11.741223999999999 1.193056 11.381687999999999 0.98808 10.992527999999998 0.85974C10.603459999999998 0.7314919999999999 10.192588 0.682364 9.784199999999998 0.7154839999999999C9.381976 0.79304 8.99944 0.9503599999999999 8.659040000000001 1.1780599999999999C8.318548 1.4058519999999999 8.027092 1.6993319999999998 7.801875999999999 2.041388C7.5766599999999995 2.383536 7.4221 2.7671759999999996 7.347396 3.169952C7.272691999999999 3.5726359999999997 7.279407999999999 3.9861759999999995 7.366992 4.386283999999999C6.975256 4.569088 6.638719999999999 4.85208 6.391423999999999 5.206556C6.144036 5.5611239999999995 5.994719999999999 5.974572 5.958379999999999 6.405315999999999" stroke-width="1"></path><path stroke="#191919" stroke-linecap="round" stroke-linejoin="round" d="M20.477451999999996 11.964692C20.776452 11.838376 21.045184 11.650051999999999 21.265892 11.411955999999998C21.486508 11.174043999999999 21.653947999999996 10.891696 21.757264 10.584048C21.86058 10.276308 21.897196 9.950168 21.864904 9.627247999999998C21.83252 9.304236 21.731872 8.991895999999999 21.569584 8.710743999999998C21.784311999999996 8.524995999999998 21.95948 8.297847999999998 22.084507999999996 8.042916C22.209535999999996 7.787983999999999 22.28194 7.51042 22.297396 7.226875999999999C22.312759999999997 6.943332 22.270899999999997 6.659603999999999 22.174207999999997 6.39262C22.077607999999998 6.125635999999999 21.9282 5.880824 21.734816 5.6728119999999995C21.914859999999997 5.394144 22.037127999999996 5.082171999999999 22.094627999999997 4.755387999999999C22.152035999999995 4.428603999999999 22.143387999999998 4.0936319999999995 22.069052 3.7702519999999993C21.994899999999998 3.4468719999999995 21.856531999999998 3.141616 21.662319999999998 2.8726079999999996C21.4682 2.6035999999999997 21.222008 2.376176 20.938556 2.20386C20.638084 2.0631 20.312587999999998 1.9838879999999999 19.981111999999996 1.970916C19.649635999999997 1.9580359999999997 19.318896 2.011672 19.008488 2.1286959999999997C18.69808 2.2457199999999995 18.41426 2.4238319999999995 18.173772 2.65236C17.933376 2.8809799999999997 17.741187999999998 3.155324 17.608524 3.4594759999999996C17.294528 3.4114519999999997 16.973723999999997 3.4337159999999995 16.669387999999998 3.524704C16.365052 3.6156919999999997 16.084636 3.773104 15.848472 3.985531999999999C15.612307999999999 4.197959999999999 15.426192 4.460252 15.303647999999999 4.753272C15.181011999999999 5.046384 15.125076 5.363047999999999 15.139703999999998 5.680355999999999" stroke-width="1"></path><path fill="#ffbfc5" d="M18.077172 11.964692C18.355196 11.757691999999999 18.585655999999997 11.493651999999999 18.753187999999998 11.190235999999999C18.920627999999997 10.886727999999998 19.021183999999998 10.550928 19.048139999999997 10.205468C19.075096 9.859824 19.027716 9.512523999999999 18.909219999999998 9.186843999999999C18.790816 8.861072 18.603963999999998 8.564464 18.361359999999998 8.316984C18.118848 8.069412 17.826012 7.876672 17.502723999999997 7.751644C17.179436 7.626707999999999 16.833147999999998 7.572336 16.487227999999998 7.592299999999999C16.141123999999998 7.612264 15.803392 7.706104 15.496663999999999 7.86738C15.189843999999999 8.028748 14.921203999999998 8.253872 14.708684 8.527664C14.616316 8.64524 14.534895999999998 8.771004 14.465435999999999 8.9033L15.037307999999998 11.960919999999998" stroke-width="1"></path><path fill="#ff808c" d="M16.764332 10.594536C16.354564 10.594259999999998 15.94958 10.507043999999999 15.576059999999998 10.3385C15.202631999999998 10.170047999999998 14.869131999999997 9.92404 14.597824 9.617036L15.037307999999998 11.964692H18.077172C18.451151999999997 11.688507999999999 18.738007999999997 11.310756 18.903699999999997 10.87624S19.106744 9.968843999999999 19.011523999999998 9.51372C18.741135999999997 9.849979999999999 18.399171999999997 10.121564 18.010288 10.308599999999998C17.621496 10.495636 17.195719999999998 10.59334 16.764332 10.594628Z" stroke-width="1"></path><path stroke="#191919" stroke-linecap="round" stroke-linejoin="round" d="M18.077172 11.964692C18.355196 11.757691999999999 18.585655999999997 11.493651999999999 18.753187999999998 11.190235999999999C18.920627999999997 10.886727999999998 19.021183999999998 10.550928 19.048139999999997 10.205468C19.075096 9.859824 19.027716 9.512523999999999 18.909219999999998 9.186843999999999C18.790816 8.861072 18.603963999999998 8.564464 18.361359999999998 8.316984C18.118848 8.069412 17.826012 7.876672 17.502723999999997 7.751644C17.179436 7.626707999999999 16.833147999999998 7.572336 16.487227999999998 7.592299999999999C16.141123999999998 7.612264 15.803392 7.706104 15.496663999999999 7.86738C15.189843999999999 8.028748 14.921203999999998 8.253872 14.708684 8.527664C14.616316 8.64524 14.534895999999998 8.771004 14.465435999999999 8.9033L15.037307999999998 11.960919999999998" stroke-width="1"></path><path stroke="#191919" stroke-linecap="round" stroke-linejoin="round" d="M4.455836 8.997232C5.042888 9.877763999999999 5.368475999999999 10.906692 5.39488 11.964692" stroke-width="1"></path><path stroke="#191919" stroke-linecap="round" stroke-linejoin="round" d="M10.090284 3.832352L10.156984 4.000436C10.7111 5.38522 11.006879999999999 6.859795999999999 11.02942 8.351116" stroke-width="1"></path><path stroke="#191919" stroke-linecap="round" stroke-linejoin="round" d="M19.481092 5.240963999999999C18.727059999999998 5.999687999999999 18.061071999999996 6.841119999999999 17.495824 7.749251999999999" stroke-width="1"></path><path fill="#ffbfc5" d="M9.838664 11.964692C9.659724 11.536615999999999 9.589251999999998 11.07082 9.633688 10.608887999999999C9.678032 10.146955999999998 9.835904 9.703148 10.093136 9.316932C10.350368 8.930624 10.698955999999999 8.613959999999999 11.107987999999999 8.394816C11.517019999999999 8.175764 11.973892 8.061131999999999 12.438032 8.061131999999999C12.902079999999998 8.061131999999999 13.358951999999999 8.175764 13.767983999999998 8.394816C14.177107999999999 8.613959999999999 14.525695999999998 8.930624 14.782836 9.316932C15.040067999999998 9.703148 15.19794 10.146955999999998 15.242283999999998 10.608887999999999C15.286719999999999 11.07082 15.216247999999998 11.536523999999998 15.037399999999998 11.964692" stroke-width="1"></path><path fill="#ff808c" d="M12.438032 10.812484C11.954848 10.81184 11.478748 10.696655999999999 11.048831999999999 10.47604S10.247603999999999 9.935907999999998 9.96544 9.543712C9.765892 9.912079999999998 9.650891999999999 10.320191999999999 9.628904 10.738515999999999C9.607007999999999 11.156839999999999 9.678676 11.574704 9.838664 11.96184H15.037399999999998C15.19794 11.574888 15.269884 11.156932 15.247895999999997 10.738423999999998C15.225999999999999 10.320008 15.110724 9.911895999999999 14.910623999999999 9.543712C14.628459999999999 9.936 14.257055999999999 10.255607999999999 13.827231999999999 10.476132C13.397316 10.696747999999998 12.921123999999999 10.811931999999999 12.438032 10.812484Z" stroke-width="1"></path><path stroke="#191919" stroke-linecap="round" stroke-linejoin="round" d="M9.838664 11.964692C9.659724 11.536615999999999 9.589251999999998 11.07082 9.633688 10.608887999999999C9.678032 10.146955999999998 9.835904 9.703148 10.093136 9.316932C10.350368 8.930624 10.698955999999999 8.613959999999999 11.107987999999999 8.394816C11.517019999999999 8.175764 11.973892 8.061131999999999 12.438032 8.061131999999999C12.902079999999998 8.061131999999999 13.358951999999999 8.175764 13.767983999999998 8.394816C14.177107999999999 8.613959999999999 14.525695999999998 8.930624 14.782836 9.316932C15.040067999999998 9.703148 15.19794 10.146955999999998 15.242283999999998 10.608887999999999C15.286719999999999 11.07082 15.216247999999998 11.536523999999998 15.037399999999998 11.964692" stroke-width="1"></path></svg>