<svg xmlns="http://www.w3.org/2000/svg" fill="none" viewBox="0 0 24 24" id="Fast-Food-Pizza--Streamline-Ultimate.svg" height="24" width="24"><desc>Fast Food Pizza Streamline Icon: https://streamlinehq.com</desc><path fill="#ff808c" stroke="#191919" stroke-linecap="round" stroke-linejoin="round" d="M18.7436 4.6432L14.7936 8.6815C14.7255 8.7525 14.6374 8.8009 14.541 8.8202C14.4445 8.8395 14.3445 8.8287 14.2545 8.7893C14.165 8.7525 14.0883 8.6901 14.0343 8.6099C13.9802 8.5296 13.9511 8.4352 13.9506 8.3384V2.6917C15.7425 2.6881 17.4639 3.389 18.7436 4.6432Z" stroke-width="1"></path><path fill="#ffbc44" stroke="#191919" stroke-linecap="round" stroke-linejoin="round" d="M19.9688 3.173C19.9697 3.2402 19.9573 3.3069 19.932 3.3692C19.9067 3.4314 19.8693 3.488 19.8218 3.5356L18.7436 4.6432C17.4637 3.3893 15.7424 2.6888 13.9506 2.6927V1.2215C13.9505 1.1549 13.9645 1.0891 13.9915 1.0283C14.0185 0.9676 14.058 0.9131 14.1074 0.8686C14.1542 0.8206 14.211 0.7835 14.2736 0.7598C14.3362 0.7361 14.4033 0.7264 14.4701 0.7314C16.4179 0.8446 18.2788 1.576 19.7826 2.8191C19.8361 2.8623 19.8802 2.916 19.9123 2.9768C19.9442 3.0377 19.9636 3.1044 19.9689 3.173H19.9689Z" stroke-width="1"></path><path fill="#ffbc44" stroke="#191919" stroke-linecap="round" stroke-linejoin="round" d="M19.1847 19.5712C18.3194 20.7842 17.161 21.7584 15.8173 22.4027C14.4738 23.0469 12.9889 23.3404 11.5013 23.2556C10.0136 23.1709 8.5717 22.7107 7.31 21.918C6.0483 21.1252 5.0079 20.0259 4.286 18.7223C3.5641 17.4189 3.1841 15.9538 3.1815 14.4637C3.1789 12.9737 3.5538 11.5072 4.2713 10.2013C4.9887 8.8952 6.0252 7.7922 7.2841 6.9952C8.5431 6.1981 9.9834 5.7329 11.4708 5.643C11.6074 5.642 11.7399 5.6908 11.8433 5.7802C11.8906 5.8259 11.928 5.8807 11.9533 5.9414C11.9786 6.0021 11.9912 6.0673 11.9903 6.1331V7.5925C10.4029 7.5927 8.8647 8.1432 7.6377 9.1502C6.4107 10.1573 5.5709 11.5587 5.2613 13.1156C4.9518 14.6725 5.1916 16.2886 5.94 17.6885S7.8989 20.1855 9.3655 20.7928C10.8321 21.4002 12.4639 21.4803 13.9829 21.0194C15.5018 20.5585 16.814 19.5852 17.6958 18.2653C18.5777 16.9454 18.9746 15.3606 18.8189 13.7808C18.6632 12.2011 17.9646 10.7243 16.8421 9.6019L17.8713 8.5727C17.9188 8.5252 17.9755 8.4878 18.0377 8.4625C18.1001 8.4373 18.1667 8.4248 18.234 8.4257C18.3686 8.4336 18.4952 8.4933 18.5868 8.5923C19.9146 10.0843 20.6968 11.9828 20.8054 13.9772C20.914 15.9716 20.3427 17.9438 19.1847 19.5712H19.1847Z" stroke-width="1"></path><path fill="#ff808c" stroke="#191919" stroke-linecap="round" stroke-linejoin="round" d="M17.6949 18.2676C17.0361 19.2528 16.1333 20.0506 15.0745 20.5832C14.0156 21.1157 12.8369 21.365 11.6531 21.3066C10.4694 21.2481 9.3209 20.8841 8.3197 20.2498S6.4986 18.7327 5.94 17.6875C5.3814 16.6421 5.1031 15.47 5.1322 14.2851C5.1613 13.1002 5.4969 11.9431 6.1062 10.9265C6.7155 9.91 7.5777 9.0685 8.6089 8.4842C9.6401 7.8999 10.8051 7.5927 11.9903 7.5925V14.4537L16.8421 9.6019C17.965 10.7246 18.6638 12.2019 18.8193 13.7821C18.9748 15.3623 18.5774 16.9476 17.6949 18.2676H17.6949Z" stroke-width="1"></path><path fill="#ffef5e" stroke="#191919" stroke-linecap="round" stroke-linejoin="round" d="M9.5457 12.0033C9.7396 12.0033 9.9291 11.9459 10.0903 11.8381C10.2515 11.7304 10.3771 11.5773 10.4513 11.3982C10.5255 11.2192 10.5449 11.022 10.5071 10.8319S10.3759 10.4671 10.2388 10.33C10.1018 10.1929 9.9271 10.0996 9.737 10.0618C9.5468 10.0239 9.3497 10.0433 9.1707 10.1175C8.9915 10.1917 8.8385 10.3174 8.7308 10.4785C8.6231 10.6398 8.5656 10.8293 8.5656 11.0231C8.5656 11.2831 8.6688 11.5324 8.8527 11.7162C9.0365 11.9 9.2858 12.0033 9.5457 12.0033Z" stroke-width="1"></path><path fill="#ffef5e" stroke="#191919" stroke-linecap="round" stroke-linejoin="round" d="M8.5656 16.4141C8.7594 16.4141 8.9489 16.3566 9.1101 16.2489C9.2713 16.1412 9.3969 15.9881 9.4711 15.809C9.5453 15.6299 9.5647 15.4328 9.5269 15.2427C9.4891 15.0525 9.3957 14.8778 9.2587 14.7408C9.1216 14.6037 8.9469 14.5104 8.7568 14.4725C8.5667 14.4347 8.3696 14.4541 8.1905 14.5283C8.0114 14.6025 7.8583 14.7282 7.7506 14.8893C7.6429 15.0505 7.5854 15.24 7.5854 15.4339C7.5854 15.6938 7.6887 15.9432 7.8725 16.127C8.0563 16.3107 8.3056 16.4141 8.5656 16.4141Z" stroke-width="1"></path><path fill="#ffef5e" stroke="#191919" stroke-linecap="round" stroke-linejoin="round" d="M12.4862 19.3546C12.6801 19.3546 12.8696 19.2971 13.0308 19.1894C13.192 19.0817 13.3176 18.9286 13.3918 18.7495C13.466 18.5704 13.4854 18.3733 13.4476 18.1832S13.3164 17.8183 13.1793 17.6813C13.0423 17.5442 12.8676 17.4509 12.6775 17.413C12.4873 17.3752 12.2902 17.3946 12.1111 17.4688C11.9321 17.543 11.779 17.6687 11.6712 17.8298C11.5635 17.991 11.5061 18.1805 11.5061 18.3744C11.5061 18.6343 11.6094 18.8837 11.7932 19.0675S12.2263 19.3546 12.4862 19.3546Z" stroke-width="1"></path><path fill="#ffef5e" stroke="#191919" stroke-linecap="round" stroke-linejoin="round" d="M15.9168 16.4141C16.1107 16.4141 16.3002 16.3566 16.4614 16.2489C16.6226 16.1412 16.7482 15.9881 16.8224 15.809C16.8966 15.6299 16.916 15.4328 16.8782 15.2427S16.747 14.8778 16.6099 14.7408C16.4729 14.6037 16.2982 14.5104 16.1081 14.4725C15.9179 14.4347 15.7208 14.4541 15.5417 14.5283C15.3626 14.6025 15.2095 14.7282 15.1018 14.8893C14.9941 15.0505 14.9367 15.24 14.9367 15.4339C14.9367 15.6938 15.04 15.9432 15.2238 16.127S15.6569 16.4141 15.9168 16.4141Z" stroke-width="1"></path><path fill="#ffef5e" d="M15.6463 10.8036L15.9168 11.0231C16.1038 11.2198 16.2064 11.4816 16.2029 11.7528C16.1995 12.0241 16.0902 12.2832 15.8985 12.4751C15.7067 12.6668 15.4475 12.7761 15.1762 12.7795C14.905 12.7829 14.6432 12.6803 14.4466 12.4934L14.179 12.2719" stroke-width="1"></path><path stroke="#191919" stroke-linecap="round" stroke-linejoin="round" d="M15.6463 10.8036L15.9168 11.0231C16.1038 11.2198 16.2064 11.4816 16.2029 11.7528C16.1995 12.0241 16.0902 12.2832 15.8985 12.4751C15.7067 12.6668 15.4475 12.7761 15.1762 12.7795C14.905 12.7829 14.6432 12.6803 14.4466 12.4934L14.179 12.2719" stroke-width="1"></path><path stroke="#191919" stroke-linecap="round" stroke-linejoin="round" d="M17.6949 18.2676C17.0361 19.2528 16.1333 20.0506 15.0745 20.5832C14.0156 21.1157 12.8369 21.365 11.6531 21.3066C10.4694 21.2481 9.3209 20.8841 8.3197 20.2498S6.4986 18.7327 5.94 17.6875C5.3814 16.6421 5.1031 15.47 5.1322 14.2851C5.1613 13.1002 5.4969 11.9431 6.1062 10.9265C6.7155 9.91 7.5777 9.0685 8.6089 8.4842C9.6401 7.8999 10.8051 7.5927 11.9903 7.5925V14.4537L16.8421 9.6019C17.965 10.7246 18.6638 12.2019 18.8193 13.7821C18.9748 15.3623 18.5774 16.9476 17.6949 18.2676H17.6949Z" stroke-width="1"></path></svg>