<?xml version="1.0" ?><!DOCTYPE svg  PUBLIC '-//W3C//DTD SVG 1.1//EN'  'http://www.w3.org/Graphics/SVG/1.1/DTD/svg11.dtd'><svg height="512px" style="enable-background:new 0 0 512 512;" version="1.1" viewBox="0 0 512 512" width="512px" xml:space="preserve" xmlns="http://www.w3.org/2000/svg" xmlns:xlink="http://www.w3.org/1999/xlink"><g id="gas_x2C__oil_x2C__station_x2C__petrol_x2C_"><g><path d="M381.988,175.885c0.303,2.548-1.323,4.829-3.631,5.106    c-2.297,0.272-4.414-1.563-4.718-4.114c-0.037-0.294-0.042-0.582-0.037-0.858c0.619,2.094,2.515,3.507,4.558,3.262    c2.041-0.24,3.549-2.057,3.661-4.242C381.901,175.314,381.95,175.592,381.988,175.885L381.988,175.885z" style="fill-rule:evenodd;clip-rule:evenodd;fill:#010101;"/><path d="M265.715,212.641H106.522l0.167-88.578    c0-1.008,0.838-1.962,1.706-1.962h155.469c0.869,0,1.706,0.869,1.706,1.962l0.234,82.826L265.715,212.641z" style="fill-rule:evenodd;clip-rule:evenodd;fill:#FFFFFF;"/><path d="M167.657,147.162l2.584-0.687    c0.854-0.228,1.736,0.277,1.961,1.13l4.57,17.041c0.227,0.847-0.276,1.732-1.129,1.96l-2.588,0.688    c-0.853,0.24-1.732-0.277-1.96-1.125l-4.571-17.046C166.297,148.277,166.812,147.392,167.657,147.162L167.657,147.162z" style="fill-rule:evenodd;clip-rule:evenodd;fill:#636F84;"/><path d="M151.754,154.129l2.321-1.338    c0.757-0.443,1.74-0.176,2.183,0.58l8.824,15.281c0.442,0.762,0.178,1.749-0.587,2.197l-2.32,1.332    c-0.758,0.442-1.743,0.177-2.184-0.587l-8.825-15.286C150.726,155.552,150.99,154.572,151.754,154.129L151.754,154.129z" style="fill-rule:evenodd;clip-rule:evenodd;fill:#636F84;"/><path d="M138.19,164.975l1.896-1.896c0.623-0.624,1.638-0.624,2.264,0    l12.475,12.476c0.626,0.624,0.626,1.646,0,2.265l-1.887,1.893c-0.627,0.624-1.647,0.624-2.266,0l-12.482-12.477    C137.572,166.611,137.572,165.599,138.19,164.975L138.19,164.975z" style="fill-rule:evenodd;clip-rule:evenodd;fill:#636F84;"/><path d="M127.903,178.955l1.338-2.319    c0.44-0.755,1.425-1.022,2.188-0.58l15.278,8.815c0.762,0.438,1.028,1.422,0.586,2.19l-1.338,2.324    c-0.439,0.762-1.425,1.018-2.187,0.576l-15.278-8.816C127.727,180.709,127.463,179.718,127.903,178.955L127.903,178.955z" style="fill-rule:evenodd;clip-rule:evenodd;fill:#636F84;"/><path d="M243.08,176.642l1.335,2.324    c0.442,0.752,0.187,1.743-0.578,2.18l-15.283,8.826c-0.762,0.442-1.748,0.176-2.19-0.586l-1.334-2.324    c-0.443-0.756-0.176-1.742,0.585-2.18l15.283-8.826C241.654,175.613,242.64,175.88,243.08,176.642L243.08,176.642z" style="fill-rule:evenodd;clip-rule:evenodd;fill:#636F84;"/><path d="M232.233,163.079l1.898,1.896c0.623,0.624,0.623,1.646,0,2.26    l-12.478,12.483c-0.624,0.618-1.64,0.618-2.263,0l-1.897-1.893c-0.624-0.624-0.624-1.646,0-2.265l12.478-12.482    C230.598,162.459,231.61,162.459,232.233,163.079L232.233,163.079z" style="fill-rule:evenodd;clip-rule:evenodd;fill:#636F84;"/><path d="M218.253,152.792l2.318,1.338    c0.759,0.442,1.023,1.423,0.58,2.19l-8.814,15.279c-0.44,0.759-1.427,1.024-2.188,0.582l-2.325-1.332    c-0.764-0.448-1.021-1.435-0.58-2.186l8.813-15.28C216.504,152.615,217.489,152.349,218.253,152.792L218.253,152.792z" style="fill-rule:evenodd;clip-rule:evenodd;fill:#636F84;"/><path d="M202.08,146.475l2.585,0.687    c0.852,0.23,1.361,1.115,1.132,1.961l-4.563,17.046c-0.229,0.848-1.109,1.364-1.962,1.135l-2.587-0.698    c-0.853-0.229-1.357-1.113-1.134-1.956l4.566-17.045C200.344,146.752,201.226,146.247,202.08,146.475L202.08,146.475z" style="fill-rule:evenodd;clip-rule:evenodd;fill:#636F84;"/><path d="M184.819,144.55h2.681c0.881,0,1.604,0.714,1.604,1.599    v17.647c0,0.885-0.722,1.6-1.604,1.6h-2.681c-0.872,0-1.594-0.715-1.594-1.6v-17.647    C183.225,145.265,183.947,144.55,184.819,144.55L184.819,144.55z" style="fill-rule:evenodd;clip-rule:evenodd;fill:#636F84;"/><path d="M91.655,112.891v313.582c0,4.095,2.889,7.44,6.409,7.44    h176.622c3.529,0,6.379-3.346,6.379-7.44v-35.188c5.372,4.178,11.552,8.367,18.042,11.48c6.866,3.294,14.29,5.576,21.762,5.691    c8.114,0.118,16.108-2.142,23.294-8.026c4.961-4.072,9.522-9.893,13.36-17.887c22.285-46.381,6.582-142.172,1.962-167.165    c40.347-17.465,26.527-25.194,28.979-70.765c0,0-1.158-4.306-10.709-9.535c-9.53-5.239-37.059-15.69-37.059-15.69    s-13.628-2.287-15.904,7.728c-2.275,10.014,0.463,37.261,0.463,37.261l12.558,49.296c0.689,3.433,23.116,113.312,0.81,159.777    c-2.375,4.904-4.967,8.346-7.679,10.564c-3.034,2.483-6.467,3.464-9.902,3.399c-4.068-0.085-8.599-1.502-13.044-3.635    c-11.778-5.648-22.37-15.788-26.933-20.552V112.891c0-4.097-2.85-7.445-6.379-7.445H98.064    C94.543,105.446,91.655,108.793,91.655,112.891L91.655,112.891z M345.781,166.397c7.872-2.052,16.096-4.354,23.339-4.956    c1.855-0.149,3.901,1.001,5.746,3.054c-14.716,9.551-6.897,18.356,1.818,28.803c-3.408,5.229-9.466,9.838-19.273,12.695    l-1.567-5.335l-0.166-0.607L345.781,166.397z M265.715,212.641H106.522l0.167-88.578c0-1.008,0.838-1.962,1.706-1.962h155.469    c0.869,0,1.706,0.869,1.706,1.962l0.234,82.826L265.715,212.641z M378.939,188.885c-7.073-8.171-12.531-13.623-1.883-21.272    C380.318,173.209,382.254,181.007,378.939,188.885L378.939,188.885z" style="fill-rule:evenodd;clip-rule:evenodd;fill:#444D5E;"/><path d="M345.781,166.397c7.872-2.052,16.096-4.354,23.339-4.956    c1.855-0.149,3.901,1.001,5.746,3.054c-14.716,9.551-6.897,18.356,1.818,28.803c-3.408,5.229-9.466,9.838-19.273,12.695    l-1.567-5.335l-0.166-0.607L345.781,166.397z" style="fill-rule:evenodd;clip-rule:evenodd;fill:#FFFFFF;"/><path d="M296.368,423.649H76.387v27.3c0,3.025,1.618,5.54,3.668,5.797    H80.4h211.955h0.345c2.048-0.257,3.669-2.771,3.669-5.797V423.649z" style="fill-rule:evenodd;clip-rule:evenodd;fill:#636F84;"/><path d="M417.436,63.249c0,0,0,28.983,14.204,21.016    C445.834,76.29,417.436,63.249,417.436,63.249L417.436,63.249z" style="fill-rule:evenodd;clip-rule:evenodd;fill:#43B3E6;"/><path d="M393.313,77.128c5.884-5.762,12.067-10.468,16.677-11.448    l1.792-0.348l-1.792-8.314l-0.404-1.764l-1.765,0.347c-5.909,1.242-13.644,6.843-20.827,13.623    c-8.833,8.283-17.002,18.5-20.122,24.703l-0.661,1.334l8.251,6.492l1.008-1.994C378.16,94.392,385.43,84.866,393.313,77.128    L393.313,77.128z" style="fill-rule:evenodd;clip-rule:evenodd;fill:#837F7F;"/><path d="M372.1,112.667c4.585-9.209-11.464-19.598-17.264-11.955    c-3.576,4.733-11.432,15.1-12.322,16.042l22.508,10.138L372.1,112.667z" style="fill-rule:evenodd;clip-rule:evenodd;fill:#837F7F;"/><path d="M345.781,166.397c7.872-2.052,16.096-4.354,23.339-4.956    c1.855-0.149,3.901,1.001,5.746,3.054c-14.716,9.551-6.897,18.356,1.818,28.803c-3.408,5.229-9.466,9.838-19.273,12.695    l-1.567-5.335l-0.166-0.607L345.781,166.397z M325.255,164.378l12.558,49.296c0.069,0.347,0.353,1.759,0.795,4.072l20.877-2.367    c40.347-17.465,26.527-25.194,28.979-70.765c0,0-1.158-4.306-10.709-9.535c-9.53-5.239-37.059-15.69-37.059-15.69    s-13.628-2.287-15.904,7.728C322.517,137.131,325.255,164.378,325.255,164.378L325.255,164.378z M378.939,188.885    c-7.073-8.171-12.531-13.623-1.883-21.272C380.318,173.209,382.254,181.007,378.939,188.885L378.939,188.885z" style="fill-rule:evenodd;clip-rule:evenodd;fill:#C44127;"/><path d="M307.997,383.78c-11.778-5.648-22.37-15.788-26.933-20.552    v28.057c5.372,4.178,11.552,8.367,18.042,11.48c6.866,3.294,14.29,5.576,21.762,5.691c8.114,0.118,16.108-2.142,23.294-8.026    c4.961-4.072,9.522-9.893,13.36-17.887c22.285-46.381,6.582-142.172,1.962-167.165l-20.877,2.367    c3.944,20.765,20.082,113.897,0.015,155.706c-2.375,4.904-4.967,8.346-7.679,10.564c-3.034,2.483-6.467,3.464-9.902,3.399    C316.973,387.33,312.442,385.913,307.997,383.78L307.997,383.78z" style="fill-rule:evenodd;clip-rule:evenodd;fill:#575757;"/><path d="M171.241,182.212c1.857,0,3.312,0.666,4.365,1.999c1.247,1.577,1.872,4.188,1.872,7.84    c0,3.646-0.631,6.263-1.889,7.856c-1.036,1.317-2.491,1.966-4.348,1.966c-1.869,0-3.371-0.719-4.521-2.157    c-1.138-1.439-1.71-4.01-1.71-7.702c0-3.625,0.624-6.236,1.882-7.825C167.933,182.872,169.383,182.212,171.241,182.212    L171.241,182.212z M171.241,185.276c-0.432,0-0.832,0.139-1.168,0.421c-0.346,0.283-0.609,0.795-0.801,1.535    c-0.25,0.954-0.374,2.564-0.374,4.818c0,2.259,0.11,3.815,0.336,4.658c0.222,0.842,0.501,1.412,0.845,1.689    c0.339,0.278,0.73,0.421,1.163,0.421c0.44,0,0.836-0.144,1.175-0.426c0.346-0.288,0.61-0.795,0.802-1.53    c0.247-0.948,0.373-2.553,0.373-4.813c0-2.254-0.109-3.806-0.338-4.653c-0.221-0.842-0.506-1.417-0.845-1.7    C172.07,185.415,171.681,185.276,171.241,185.276L171.241,185.276z M186.164,182.212c1.861,0,3.313,0.666,4.366,1.999    c1.239,1.577,1.865,4.188,1.865,7.84c0,3.646-0.626,6.263-1.882,7.856c-1.044,1.317-2.488,1.966-4.35,1.966    c-1.873,0-3.379-0.719-4.518-2.157c-1.147-1.439-1.719-4.01-1.719-7.702c0-3.625,0.631-6.236,1.886-7.825    C182.852,182.872,184.305,182.212,186.164,182.212L186.164,182.212z M186.164,185.276c-0.439,0-0.831,0.139-1.175,0.421    c-0.346,0.283-0.609,0.795-0.801,1.535c-0.25,0.954-0.374,2.564-0.374,4.818c0,2.259,0.109,3.815,0.339,4.658    c0.218,0.842,0.502,1.412,0.842,1.689c0.337,0.278,0.729,0.421,1.168,0.421c0.433,0,0.832-0.144,1.176-0.426    c0.339-0.288,0.603-0.795,0.795-1.53c0.247-0.948,0.373-2.553,0.373-4.813c0-2.254-0.109-3.806-0.339-4.653    c-0.221-0.842-0.499-1.417-0.844-1.7C186.985,185.415,186.596,185.276,186.164,185.276L186.164,185.276z M201.08,182.212    c1.86,0,3.313,0.666,4.366,1.999c1.25,1.577,1.874,4.188,1.874,7.84c0,3.646-0.635,6.263-1.89,7.856    c-1.044,1.317-2.489,1.966-4.35,1.966c-1.865,0-3.373-0.719-4.517-2.157c-1.148-1.439-1.721-4.01-1.721-7.702    c0-3.625,0.631-6.236,1.886-7.825C197.772,182.872,199.22,182.212,201.08,182.212L201.08,182.212z M201.08,185.276    c-0.439,0-0.831,0.139-1.169,0.421c-0.345,0.283-0.613,0.795-0.8,1.535c-0.251,0.954-0.375,2.564-0.375,4.818    c0,2.259,0.112,3.815,0.333,4.658c0.229,0.842,0.503,1.412,0.842,1.689c0.338,0.278,0.729,0.421,1.169,0.421    c0.44,0,0.832-0.144,1.176-0.426c0.338-0.288,0.61-0.795,0.794-1.53c0.248-0.948,0.376-2.553,0.376-4.813    c0-2.254-0.111-3.806-0.333-4.653c-0.227-0.842-0.507-1.417-0.843-1.7C201.912,185.415,201.52,185.276,201.08,185.276    L201.08,185.276z" style="fill:#636F84;"/><rect height="76.917" style="fill-rule:evenodd;clip-rule:evenodd;fill:#636F84;" width="151.586" x="110.366" y="241.689"/><rect height="10.788" style="fill-rule:evenodd;clip-rule:evenodd;fill:#FFD032;" width="15.714" x="125.98" y="282.917"/><rect height="10.788" style="fill-rule:evenodd;clip-rule:evenodd;fill:#FFD032;" width="15.719" x="152.018" y="282.917"/><rect height="10.788" style="fill-rule:evenodd;clip-rule:evenodd;fill:#FFD032;" width="15.719" x="178.057" y="282.917"/><rect height="10.788" style="fill-rule:evenodd;clip-rule:evenodd;fill:#C44127;" width="15.718" x="204.099" y="282.917"/><rect height="10.788" style="fill-rule:evenodd;clip-rule:evenodd;fill:#C44127;" width="15.723" x="230.133" y="282.917"/><rect height="10.776" style="fill-rule:evenodd;clip-rule:evenodd;fill:#43B3E6;" width="15.718" x="126.469" y="300.613"/><rect height="10.776" style="fill-rule:evenodd;clip-rule:evenodd;fill:#43B3E6;" width="15.715" x="152.511" y="300.613"/><rect height="10.776" style="fill-rule:evenodd;clip-rule:evenodd;fill:#43B3E6;" width="15.723" x="178.545" y="300.613"/><rect height="10.776" style="fill-rule:evenodd;clip-rule:evenodd;fill:#43B3E6;" width="15.726" x="204.584" y="300.613"/><rect height="10.776" style="fill-rule:evenodd;clip-rule:evenodd;fill:#43B3E6;" width="15.725" x="230.624" y="300.613"/><path d="M167.198,250.787c2.367,0,4.211,0.847,5.549,2.537c1.588,2.008,2.382,5.329,2.382,9.958    c0,4.637-0.802,7.962-2.403,9.987c-1.323,1.675-3.161,2.504-5.527,2.504c-2.371,0-4.287-0.914-5.746-2.748    c-1.454-1.823-2.179-5.085-2.179-9.786c0-4.602,0.799-7.922,2.401-9.948C162.995,251.617,164.833,250.787,167.198,250.787    L167.198,250.787z M167.198,254.67c-0.558,0-1.055,0.182-1.489,0.549c-0.434,0.358-0.778,1.008-1.016,1.941    c-0.317,1.211-0.48,3.25-0.48,6.121c0,2.878,0.145,4.85,0.431,5.927c0.287,1.066,0.639,1.791,1.074,2.142    c0.431,0.363,0.923,0.545,1.481,0.545c0.56,0,1.061-0.182,1.493-0.545c0.434-0.361,0.778-1.012,1.015-1.95    c0.317-1.193,0.477-3.24,0.477-6.118c0-2.871-0.141-4.836-0.426-5.908c-0.287-1.071-0.64-1.796-1.074-2.154    C168.25,254.853,167.757,254.67,167.198,254.67L167.198,254.67z M186.164,250.787c2.359,0,4.212,0.847,5.541,2.537    c1.586,2.008,2.38,5.329,2.38,9.958c0,4.637-0.798,7.962-2.395,9.987c-1.323,1.675-3.167,2.504-5.526,2.504    c-2.381,0-4.29-0.914-5.745-2.748c-1.454-1.823-2.182-5.085-2.182-9.786c0-4.602,0.799-7.922,2.395-9.948    C181.954,251.617,183.797,250.787,186.164,250.787L186.164,250.787z M186.164,254.67c-0.559,0-1.06,0.182-1.491,0.549    c-0.439,0.358-0.778,1.008-1.014,1.941c-0.324,1.211-0.479,3.25-0.479,6.121c0,2.878,0.142,4.85,0.429,5.927    c0.277,1.066,0.639,1.791,1.071,2.142c0.435,0.363,0.925,0.545,1.484,0.545c0.552,0,1.051-0.182,1.49-0.545    c0.435-0.361,0.773-1.012,1.016-1.95c0.314-1.193,0.477-3.24,0.477-6.118c0-2.871-0.146-4.836-0.426-5.908    c-0.285-1.071-0.646-1.796-1.08-2.154C187.214,254.853,186.715,254.67,186.164,254.67L186.164,254.67z M205.123,250.787    c2.364,0,4.208,0.847,5.546,2.537c1.585,2.008,2.382,5.329,2.382,9.958c0,4.637-0.803,7.962-2.398,9.987    c-1.322,1.675-3.166,2.504-5.53,2.504c-2.374,0-4.293-0.914-5.748-2.748c-1.455-1.823-2.183-5.085-2.183-9.786    c0-4.602,0.802-7.922,2.404-9.948C200.917,251.617,202.762,250.787,205.123,250.787L205.123,250.787z M205.123,254.67    c-0.56,0-1.061,0.182-1.486,0.549c-0.439,0.358-0.778,1.008-1.021,1.941c-0.315,1.211-0.479,3.25-0.479,6.121    c0,2.878,0.149,4.85,0.428,5.927c0.284,1.066,0.645,1.791,1.071,2.142c0.434,0.363,0.927,0.545,1.486,0.545    c0.557,0,1.059-0.182,1.498-0.545c0.426-0.361,0.771-1.012,1.007-1.95c0.323-1.193,0.477-3.24,0.477-6.118    c0-2.871-0.141-4.836-0.426-5.908c-0.279-1.071-0.64-1.796-1.074-2.154C206.17,254.853,205.68,254.67,205.123,254.67    L205.123,254.67z" style="fill:#374052;"/></g></g><g id="Layer_1"/></svg>