<svg xmlns="http://www.w3.org/2000/svg" fill="none" viewBox="0 0 24 24" id="Cookie--Streamline-Ultimate.svg" height="24" width="24"><desc>Cookie Streamline Icon: https://streamlinehq.com</desc><path fill="#ffdda1" d="M20 6.76001c-0.7394 -0.00038 -1.4641 -0.20705 -2.0925 -0.59676 -0.6283 -0.38972 -1.1355 -0.94702 -1.4645 -1.60924 -0.0296 -0.05891 -0.0705 -0.11139 -0.1205 -0.15441 -0.0499 -0.04303 -0.1079 -0.07575 -0.1705 -0.09629 -0.0627 -0.02054 -0.1288 -0.02849 -0.1945 -0.0234 -0.0657 0.0051 -0.1298 0.02315 -0.1885 0.0531 -0.5472 0.28129 -1.1537 0.42769 -1.769 0.427 -1.0609 0 -2.0783 -0.42143 -2.8284 -1.17157C10.4214 2.83829 10 1.82088 10 0.760012 9.99919 0.721349 9.9898 0.683349 9.9725 0.648761 9.95521 0.614172 9.93044 0.583858 9.9 0.560012 9.87054 0.536069 9.83626 0.518761 9.7995 0.509269 9.76274 0.499778 9.72437 0.498326 9.687 0.505012 7.55568 0.94263 5.59223 1.9759 4.02468 3.48482 2.45714 4.99374 1.34981 6.9164 0.831314 9.0295c-0.5185 2.1131 -0.4269 4.3299 0.264166 6.3931 0.69106 2.0631 1.95322 3.8878 3.63991 5.2623 1.68669 1.3745 3.72869 2.2422 5.88881 2.5025 2.1602 0.2603 4.3499 -0.0976 6.3148 -1.032 1.9649 -0.9345 3.6244 -2.4071 4.7858 -4.2471 1.1613 -1.8399 1.7769 -3.9715 1.7752 -6.1473 0 -1.78189 -0.4189 -3.53883 -1.223 -5.12899 -0.0581 -0.11543 -0.1587 -0.20387 -0.2807 -0.24675 -0.1219 -0.04288 -0.2557 -0.03688 -0.3733 0.01675 -0.5086 0.2358 -1.0624 0.35797 -1.623 0.358Z" stroke-width="1"></path><path fill="#ffbc44" d="M12.782 18.545c-2.7688 0.1877 -5.51207 -0.6329 -7.72309 -2.3101C2.8479 14.5576 1.31844 12.137 0.752998 9.42001 0.416336 10.9988 0.415851 12.6309 0.751574 14.2099c0.335726 1.579 1.000136 3.0697 1.950006 4.375 0.94986 1.3053 2.1639 2.396 3.56313 3.2011 1.39923 0.8051 2.95229 1.3066 4.55809 1.4719 1.6059 0.1652 3.2285 -0.0094 4.7624 -0.5127 1.5339 -0.5033 2.9446 -1.3238 4.1404 -2.4083 1.1958 -1.0845 2.1499 -2.4086 2.8002 -3.8861 0.6503 -1.4776 0.9822 -3.0755 0.9742 -4.6898 -0.0044 -0.7786 -0.0891 -1.5548 -0.253 -2.31599 -0.5165 2.44899 -1.8178 4.66269 -3.7065 6.30499 -1.8886 1.6423 -4.2615 2.6236 -6.7585 2.795Z" stroke-width="1"></path><path stroke="#191919" stroke-linecap="round" stroke-linejoin="round" d="M20 6.76001c-0.7394 -0.00038 -1.4641 -0.20705 -2.0925 -0.59676 -0.6283 -0.38972 -1.1355 -0.94702 -1.4645 -1.60924 -0.0296 -0.05891 -0.0705 -0.11139 -0.1205 -0.15441 -0.0499 -0.04303 -0.1079 -0.07575 -0.1705 -0.09629 -0.0627 -0.02054 -0.1288 -0.02849 -0.1945 -0.0234 -0.0657 0.0051 -0.1298 0.02315 -0.1885 0.0531 -0.5472 0.28129 -1.1537 0.42769 -1.769 0.427 -1.0609 0 -2.0783 -0.42143 -2.8284 -1.17157C10.4214 2.83829 10 1.82088 10 0.760012 9.99919 0.721349 9.9898 0.683349 9.9725 0.648761 9.95521 0.614172 9.93044 0.583858 9.9 0.560012 9.87054 0.536069 9.83626 0.518761 9.7995 0.509269 9.76274 0.499778 9.72437 0.498326 9.687 0.505012 7.55568 0.94263 5.59223 1.9759 4.02468 3.48482 2.45714 4.99374 1.34981 6.9164 0.831314 9.0295c-0.5185 2.1131 -0.4269 4.3299 0.264166 6.3931 0.69106 2.0631 1.95322 3.8878 3.63991 5.2623 1.68669 1.3745 3.72869 2.2422 5.88881 2.5025 2.1602 0.2603 4.3499 -0.0976 6.3148 -1.032 1.9649 -0.9345 3.6244 -2.4071 4.7858 -4.2471 1.1613 -1.8399 1.7769 -3.9715 1.7752 -6.1473 0 -1.78189 -0.4189 -3.53883 -1.223 -5.12899 -0.0581 -0.11543 -0.1587 -0.20387 -0.2807 -0.24675 -0.1219 -0.04288 -0.2557 -0.03688 -0.3733 0.01675 -0.5086 0.2358 -1.0624 0.35797 -1.623 0.358Z" stroke-width="1"></path><path fill="#c77f67" stroke="#191919" stroke-linecap="round" stroke-linejoin="round" d="M8 10.76c0.39556 0 0.78224 -0.1173 1.11114 -0.337 0.3289 -0.2198 0.58524 -0.53217 0.73662 -0.89762 0.15137 -0.36545 0.19094 -0.76759 0.11381 -1.15555 -0.07717 -0.38796 -0.26765 -0.74433 -0.54736 -1.02403 -0.2797 -0.27971 -0.63607 -0.47019 -1.02403 -0.54736 -0.38796 -0.07717 -0.79009 -0.03756 -1.15555 0.11381 -0.36545 0.15138 -0.67781 0.40772 -0.89757 0.73662C6.1173 7.97777 6 8.36445 6 8.76001c0 0.53043 0.21071 1.03914 0.58579 1.41419 0.37507 0.3751 0.88378 0.5858 1.41421 0.5858Z" stroke-width="1"></path><path fill="#c77f67" stroke="#191919" stroke-linecap="round" stroke-linejoin="round" d="M15 14.76c0.1978 0 0.3911 -0.0586 0.5556 -0.1685 0.1644 -0.1099 0.2926 -0.2661 0.3683 -0.4488 0.0757 -0.1827 0.0955 -0.3838 0.0569 -0.5778s-0.1338 -0.3721 -0.2737 -0.512c-0.1398 -0.1398 -0.318 -0.2351 -0.512 -0.2737 -0.194 -0.0386 -0.3951 -0.0188 -0.5778 0.0569 -0.1827 0.0757 -0.3389 0.2039 -0.4488 0.3683 -0.1099 0.1645 -0.1685 0.3578 -0.1685 0.5556 0 0.2652 0.1054 0.5196 0.2929 0.7071 0.1875 0.1876 0.4419 0.2929 0.7071 0.2929Z" stroke-width="1"></path><path fill="#c77f67" stroke="#191919" stroke-linecap="round" stroke-linejoin="round" d="M9 18.76c0.39556 0 0.78224 -0.1173 1.1111 -0.337 0.3289 -0.2198 0.5853 -0.5322 0.7367 -0.8976 0.1513 -0.3655 0.1909 -0.7676 0.1138 -1.1556 -0.0772 -0.3879 -0.2677 -0.7443 -0.5474 -1.024 -0.2797 -0.2797 -0.63606 -0.4702 -1.02402 -0.5474 -0.38796 -0.0771 -0.79009 -0.0375 -1.15555 0.1139 -0.36545 0.1513 -0.67781 0.4077 -0.89757 0.7366C7.1173 15.9778 7 16.3644 7 16.76c0 0.5304 0.21071 1.0392 0.58579 1.4142 0.37507 0.3751 0.88378 0.5858 1.41421 0.5858Z" stroke-width="1"></path><path stroke="#191919" d="M15 19.01c-0.1381 0 -0.25 -0.1119 -0.25 -0.25s0.1119 -0.25 0.25 -0.25" stroke-width="1"></path><path stroke="#191919" d="M15 19.01c0.1381 0 0.25 -0.1119 0.25 -0.25s-0.1119 -0.25 -0.25 -0.25" stroke-width="1"></path><path stroke="#191919" d="M16 10.01c-0.1381 0 -0.25 -0.11192 -0.25 -0.24999 0 -0.13807 0.1119 -0.25 0.25 -0.25" stroke-width="1"></path><path stroke="#191919" d="M16 10.01c0.1381 0 0.25 -0.11192 0.25 -0.24999 0 -0.13807 -0.1119 -0.25 -0.25 -0.25" stroke-width="1"></path><g><path stroke="#191919" d="M4.5 13.01c-0.13807 0 -0.25 -0.1119 -0.25 -0.25s0.11193 -0.25 0.25 -0.25" stroke-width="1"></path><path stroke="#191919" d="M4.5 13.01c0.13807 0 0.25 -0.1119 0.25 -0.25s-0.11193 -0.25 -0.25 -0.25" stroke-width="1"></path></g></svg>