<svg xmlns="http://www.w3.org/2000/svg" fill="none" viewBox="0 0 24 24" id="Transportation-Ticket-Car-Transfer-Plane--Streamline-Ultimate.svg" height="24" width="24"><desc>Transportation Ticket Car Transfer Plane Streamline Icon: https://streamlinehq.com</desc><path fill="#78eb7b" d="M10.5 17.74a4 4 0 1 0 0 -8 4 4 0 0 0 0 8Z" stroke-width="1"></path><path fill="#e3e3e3" stroke="#191919" stroke-linecap="round" stroke-linejoin="round" d="M11.5 0.869a1.38 1.38 0 0 1 1.067 1.329 1.361 1.361 0 0 1 -0.637 1.181L4.079 8.255a0.479 0.479 0 0 1 -0.532 -0.015L0.668 6.219A0.266 0.266 0 0 1 0.673 5.8l1.208 -1.065a0.268 0.268 0 0 1 0.257 -0.044l1.514 0.9 1.92 -1.34L1.933 2a0.331 0.331 0 0 1 0.019 -0.515l0.89 -0.66A0.332 0.332 0 0 1 3.15 0.781l5.014 1.867 2.32 -1.584A1.292 1.292 0 0 1 11.5 0.869v0Z" stroke-width="1"></path><path stroke="#191919" stroke-linecap="round" stroke-linejoin="round" d="M10.431 7.74a6 6 0 0 1 5.86 4.706" stroke-width="1"></path><path stroke="#191919" stroke-linecap="round" stroke-linejoin="round" d="M10.431 19.74a6 6 0 0 1 -6 -6" stroke-width="1"></path><path stroke="#191919" stroke-linecap="round" stroke-linejoin="round" d="m14.502 11.305 1.788 1.141 1.141 -1.788" stroke-width="1"></path><path stroke="#191919" stroke-linecap="round" stroke-linejoin="round" d="m5.931 14.74 -1.5 -1.5 -1.5 1.5" stroke-width="1"></path><path stroke="#191919" stroke-linecap="round" stroke-linejoin="round" d="M4.431 13.74v-0.5" stroke-width="1"></path><path fill="#66e1ff" d="M22.431 17.74h-8l0.361 -2.165a1 1 0 0 1 0.986 -0.835h5.306a1 1 0 0 1 0.987 0.835l0.36 2.165Z" stroke-width="1"></path><path fill="#c2f3ff" d="M19.851 14.74h-4.072a1 1 0 0 0 -0.987 0.835l-0.361 2.165h2.42l3 -3Z" stroke-width="1"></path><path fill="#ffbc44" stroke="#191919" stroke-linecap="round" stroke-linejoin="round" d="M23.431 20.74a1 1 0 0 1 -1 1h-8a1 1 0 0 1 -1 -1v-0.764c0 -0.155 0.036 -0.308 0.106 -0.447l0.894 -1.789h8l0.895 1.789a1 1 0 0 1 0.105 0.447v0.764Z" stroke-width="1"></path><path stroke="#191919" stroke-linecap="round" stroke-linejoin="round" d="M14.431 23.24v-1.5" stroke-width="1"></path><path stroke="#191919" stroke-linecap="round" stroke-linejoin="round" d="M22.431 23.24v-1.5" stroke-width="1"></path><path stroke="#191919" stroke-linecap="round" stroke-linejoin="round" d="M22.431 17.74h-8l0.361 -2.165a1 1 0 0 1 0.986 -0.835h5.306a1 1 0 0 1 0.987 0.835l0.36 2.165Z" stroke-width="1"></path><path stroke="#191919" stroke-linecap="round" stroke-linejoin="round" d="M13.458 19.74h2.473" stroke-width="1"></path><path stroke="#191919" stroke-linecap="round" stroke-linejoin="round" d="M20.931 19.74h2.493" stroke-width="1"></path></svg>